<svg width="16" height="16" viewBox="0 0 16 16" fill="none" xmlns="http://www.w3.org/2000/svg">
<mask id="path-1-inside-1_7101_781" fill="white">
<path fill-rule="evenodd" clip-rule="evenodd" d="M15.7007 3.71346L5.5189 13.7135C5.10837 14.1167 4.44311 14.0911 4.06476 13.6575L0.246582 9.28254L1.75343 7.96747L4.8742 11.5434L14.2993 2.28656L15.7007 3.71346Z"/>
</mask>
<path d="M15.7007 3.71346L17.1021 5.14035L18.529 3.73894L17.1276 2.31204L15.7007 3.71346ZM0.246582 9.28254L-1.06849 7.77569L-2.57534 9.09076L-1.26027 10.5976L0.246582 9.28254ZM1.75343 7.96747L3.26028 6.65241L1.94521 5.14556L0.438363 6.46062L1.75343 7.96747ZM4.8742 11.5434L3.36735 12.8584L4.76218 14.4567L6.27561 12.9703L4.8742 11.5434ZM14.2993 2.28656L15.7262 0.885144L14.3248 -0.541752L12.8979 0.859664L14.2993 2.28656ZM5.5189 13.7135L4.11748 12.2866L5.5189 13.7135ZM0.438363 6.46062L-1.06849 7.77569L1.56165 10.7894L3.0685 9.47432L0.438363 6.46062ZM6.38105 10.2283L3.26028 6.65241L0.246582 9.28254L3.36735 12.8584L6.38105 10.2283ZM12.8979 0.859664L3.47278 10.1165L6.27561 12.9703L15.7007 3.71346L12.8979 0.859664ZM17.1276 2.31204L15.7262 0.885144L12.8724 3.68798L14.2738 5.11487L17.1276 2.31204ZM6.92031 15.1404L17.1021 5.14035L14.2993 2.28656L4.11748 12.2866L6.92031 15.1404ZM-1.26027 10.5976L2.55791 14.9726L5.57161 12.3425L1.75343 7.96747L-1.26027 10.5976ZM4.11748 12.2866C4.52801 11.8834 5.19326 11.9089 5.57161 12.3425L2.55791 14.9726C3.69296 16.2732 5.68874 16.3499 6.92031 15.1404L4.11748 12.2866Z" fill="#2DCA73" mask="url(#path-1-inside-1_7101_781)"/>
</svg>
