<svg width="44" height="16" viewBox="0 0 44 16" fill="none" xmlns="http://www.w3.org/2000/svg">
<path fill-rule="evenodd" clip-rule="evenodd" d="M29 7.5C29 8.32843 29.6716 9 30.5 9C31.3284 9 32 8.32843 32 7.5C32 6.67157 31.3284 6 30.5 6C29.6716 6 29 6.67157 29 7.5ZM34.5 7.5C34.5 8.32843 35.1716 9 36 9C36.8284 9 37.5 8.32843 37.5 7.5C37.5 6.67157 36.8284 6 36 6C35.1716 6 34.5 6.67157 34.5 7.5ZM41.5 9C40.6716 9 40 8.32843 40 7.5C40 6.67157 40.6716 6 41.5 6C42.3284 6 43 6.67157 43 7.5C43 8.32843 42.3284 9 41.5 9Z" fill="#7E858E"/>
<path fill-rule="evenodd" clip-rule="evenodd" d="M7.25 7.25V2H8.75V7.25H14V8.75H8.75V14H7.25V8.75H2V7.25H7.25Z" fill="#7E858E"/>
<g clip-path="url(#clip0_2_51)">
<path fill-rule="evenodd" clip-rule="evenodd" d="M0.774193 11.1636C0.346618 11.1636 -3.92506e-07 11.5103 -3.55126e-07 11.9378L-1.55771e-07 14.2182C-6.97413e-08 15.2023 0.808777 16 1.80645 16L14.1935 16C15.1912 16 16 15.2023 16 14.2182L16 11.9378C16 11.5103 15.6534 11.1636 15.2258 11.1636C14.7982 11.1636 14.4516 11.5103 14.4516 11.9378L14.4516 14.2182C14.4516 14.3588 14.3361 14.4727 14.1935 14.4727L1.80645 14.4727C1.66393 14.4727 1.54839 14.3588 1.54839 14.2182L1.54839 11.9378C1.54839 11.5103 1.20177 11.1636 0.774193 11.1636ZM11.6111 5.93057L8.77419 8.449L8.77419 -3.21974e-07L7.22581 -1.8661e-07L7.22581 8.449L4.38888 5.93058L3.35306 7.06579L7.48209 10.7312C7.77755 10.9935 8.22245 10.9935 8.51791 10.7312L12.6469 7.06579L11.6111 5.93057Z" fill="#7E858E"/>
</g>
<defs>
<clipPath id="clip0_2_51">
<rect width="16" height="16" fill="white"/>
</clipPath>
</defs>
</svg>
